<svg xmlns="http://www.w3.org/2000/svg" width="40mm" height="40mm" viewBox="0 0 100 100"><path d="M38 83 C47 67 55 50 67 21" fill="none" stroke="#69525D" stroke-width="0.7" stroke-linecap="round" stroke-linejoin="round"/><path d="M41 75 C24 78 19 69 17 58 C33 57 40 62 41 75 Z" fill="#78A88A" stroke="#69525D" stroke-width="0.7" stroke-linecap="round" stroke-linejoin="round"/><path d="M61 34 C72 22 81 23 86 30 C79 44 68 42 61 34 Z" fill="#78A88A" stroke="#69525D" stroke-width="0.7" stroke-linecap="round" stroke-linejoin="round"/><path d="M44 71 L23 63 M65 34 L79 30" fill="none" stroke="#69525D" stroke-width="0.7" stroke-linecap="round" stroke-linejoin="round"/><ellipse cx="66" cy="22" rx="5" ry="8" fill="#F4BDD0" stroke="#69525D" stroke-width="0.7" stroke-linecap="round" stroke-linejoin="round"/><path d="M62 27 L69 27" fill="none" stroke="#69525D" stroke-width="0.7" stroke-linecap="round" stroke-linejoin="round"/><path d="M 47.0 49.0 C 42.0 44.0 32.0 34.0 33.0 25.0 C 33.0 17.0 41.0 12.0 46.0 18.0 L 50.0 23.0 L 54.0 18.0 C 59.0 12.0 67.0 17.0 67.0 25.0 C 68.0 34.0 58.0 44.0 53.0 49.0 Z" fill="#F4BDD0" stroke="#69525D" stroke-width="0.7" stroke-linecap="round" stroke-linejoin="round"/><path d="M 50.024 46.838 C 53.234 40.537 59.655 27.937 68.523 26.107 C 76.132 23.634 83.359 29.698 79.198 36.307 L 75.679 41.657 L 81.67 43.916 C 88.921 46.817 86.638 55.97 79.03 58.443 C 70.779 62.175 58.178 55.754 51.878 52.544 Z" fill="#F4BDD0" stroke="#69525D" stroke-width="0.7" stroke-linecap="round" stroke-linejoin="round"/><path d="M 53.015 49.046 C 59.999 50.152 73.967 52.364 78.448 60.233 C 83.15 66.705 79.617 75.453 72.045 73.537 L 65.87 71.843 L 65.573 78.24 C 65.055 86.033 55.644 86.69 50.941 80.218 C 44.842 73.524 47.055 59.556 48.161 52.572 Z" fill="#F4BDD0" stroke="#69525D" stroke-width="0.7" stroke-linecap="round" stroke-linejoin="round"/><path d="M 51.839 52.572 C 52.945 59.556 55.158 73.524 49.059 80.218 C 44.356 86.69 34.945 86.033 34.427 78.24 L 34.13 71.843 L 27.955 73.537 C 20.383 75.453 16.85 66.705 21.552 60.233 C 26.033 52.364 40.001 50.152 46.985 49.046 Z" fill="#F4BDD0" stroke="#69525D" stroke-width="0.7" stroke-linecap="round" stroke-linejoin="round"/><path d="M 48.122 52.544 C 41.822 55.754 29.221 62.175 20.97 58.443 C 13.362 55.97 11.079 46.817 18.33 43.916 L 24.321 41.657 L 20.802 36.307 C 16.641 29.698 23.868 23.634 31.477 26.107 C 40.345 27.937 46.766 40.537 49.976 46.838 Z" fill="#F4BDD0" stroke="#69525D" stroke-width="0.7" stroke-linecap="round" stroke-linejoin="round"/><path d="M 50.0 49.0 Q 49.0 38.0 45.0 27.0" fill="none" stroke="#69525D" stroke-width="0.7" stroke-linecap="round" stroke-linejoin="round"/><path d="M 50.951 49.691 Q 61.104 45.341 70.329 38.137" fill="none" stroke="#69525D" stroke-width="0.7" stroke-linecap="round" stroke-linejoin="round"/><path d="M 50.588 50.809 Q 57.862 59.12 67.564 65.668" fill="none" stroke="#69525D" stroke-width="0.7" stroke-linecap="round" stroke-linejoin="round"/><path d="M 49.412 50.809 Q 43.756 60.296 40.526 71.546" fill="none" stroke="#69525D" stroke-width="0.7" stroke-linecap="round" stroke-linejoin="round"/><path d="M 49.049 49.691 Q 38.278 47.243 26.581 47.648" fill="none" stroke="#69525D" stroke-width="0.7" stroke-linecap="round" stroke-linejoin="round"/><circle cx="49" cy="50" r="4" fill="#FFF0CF" stroke="#69525D" stroke-width="0.7" stroke-linecap="round" stroke-linejoin="round"/><path d="M49 50 L49.0 58.0" fill="none" stroke="#69525D" stroke-width="0.7" stroke-linecap="round" stroke-linejoin="round"/><circle cx="49" cy="58" r="1.1" fill="#FFF0CF" stroke="#69525D" stroke-width="0.7" stroke-linecap="round" stroke-linejoin="round"/><path d="M49 50 L55.928 54.0" fill="none" stroke="#69525D" stroke-width="0.7" stroke-linecap="round" stroke-linejoin="round"/><circle cx="55.928" cy="54" r="1.1" fill="#FFF0CF" stroke="#69525D" stroke-width="0.7" stroke-linecap="round" stroke-linejoin="round"/><path d="M49 50 L55.928 46.0" fill="none" stroke="#69525D" stroke-width="0.7" stroke-linecap="round" stroke-linejoin="round"/><circle cx="55.928" cy="46" r="1.1" fill="#FFF0CF" stroke="#69525D" stroke-width="0.7" stroke-linecap="round" stroke-linejoin="round"/><path d="M49 50 L49.0 42.0" fill="none" stroke="#69525D" stroke-width="0.7" stroke-linecap="round" stroke-linejoin="round"/><circle cx="49" cy="42" r="1.1" fill="#FFF0CF" stroke="#69525D" stroke-width="0.7" stroke-linecap="round" stroke-linejoin="round"/><path d="M49 50 L42.072 46.0" fill="none" stroke="#69525D" stroke-width="0.7" stroke-linecap="round" stroke-linejoin="round"/><circle cx="42.072" cy="46" r="1.1" fill="#FFF0CF" stroke="#69525D" stroke-width="0.7" stroke-linecap="round" stroke-linejoin="round"/><path d="M49 50 L42.072 54.0" fill="none" stroke="#69525D" stroke-width="0.7" stroke-linecap="round" stroke-linejoin="round"/><circle cx="42.072" cy="54" r="1.1" fill="#FFF0CF" stroke="#69525D" stroke-width="0.7" stroke-linecap="round" stroke-linejoin="round"/></svg>