<svg xmlns="http://www.w3.org/2000/svg" width="40mm" height="40mm" viewBox="0 0 100 100"><path d="M19 42 L26 29 L33 42 L33 86 L19 86 Z" fill="#E5AC4B" stroke="#344D55" stroke-width="0.7" stroke-linecap="round" stroke-linejoin="round"/><path d="M19 42 L26 29 L33 42 Z" fill="#FFF2D3" stroke="#344D55" stroke-width="0.7" stroke-linecap="round" stroke-linejoin="round"/><path d="M23 35 L26 29 L29 35 Z" fill="#E5AC4B" stroke="none" stroke-width="0.7" stroke-linecap="round" stroke-linejoin="round"/><path d="M24 45 L24 82" fill="none" stroke="#344D55" stroke-width="0.7" stroke-linecap="round" stroke-linejoin="round"/><path d="M19 83 L33 83" fill="none" stroke="#344D55" stroke-width="0.7" stroke-linecap="round" stroke-linejoin="round"/><path d="M42 29 L49 16 L56 29 L56 86 L42 86 Z" fill="#72ABA4" stroke="#344D55" stroke-width="0.7" stroke-linecap="round" stroke-linejoin="round"/><path d="M42 29 L49 16 L56 29 Z" fill="#FFF2D3" stroke="#344D55" stroke-width="0.7" stroke-linecap="round" stroke-linejoin="round"/><path d="M46 22 L49 16 L52 22 Z" fill="#72ABA4" stroke="none" stroke-width="0.7" stroke-linecap="round" stroke-linejoin="round"/><path d="M47 32 L47 82" fill="none" stroke="#344D55" stroke-width="0.7" stroke-linecap="round" stroke-linejoin="round"/><path d="M42 83 L56 83" fill="none" stroke="#344D55" stroke-width="0.7" stroke-linecap="round" stroke-linejoin="round"/><path d="M65 38 L72 25 L79 38 L79 86 L65 86 Z" fill="#E5AC4B" stroke="#344D55" stroke-width="0.7" stroke-linecap="round" stroke-linejoin="round"/><path d="M65 38 L72 25 L79 38 Z" fill="#FFF2D3" stroke="#344D55" stroke-width="0.7" stroke-linecap="round" stroke-linejoin="round"/><path d="M69 31 L72 25 L75 31 Z" fill="#E5AC4B" stroke="none" stroke-width="0.7" stroke-linecap="round" stroke-linejoin="round"/><path d="M70 41 L70 82" fill="none" stroke="#344D55" stroke-width="0.7" stroke-linecap="round" stroke-linejoin="round"/><path d="M65 83 L79 83" fill="none" stroke="#344D55" stroke-width="0.7" stroke-linecap="round" stroke-linejoin="round"/></svg>