<svg xmlns="http://www.w3.org/2000/svg" width="40mm" height="40mm" viewBox="0 0 100 100"><rect x="16" y="14" width="68" height="72" rx="3" fill="#E8BE67" stroke="#354F58" stroke-width="0.7" stroke-linecap="round" stroke-linejoin="round"/><rect x="22" y="20" width="56" height="60" rx="1" fill="#78A9A0" stroke="#354F58" stroke-width="0.7" stroke-linecap="round" stroke-linejoin="round"/><path d="M28 20 L28 80" fill="none" stroke="#354F58" stroke-width="0.7" stroke-linecap="round" stroke-linejoin="round"/><path d="M42 20 L42 80" fill="none" stroke="#354F58" stroke-width="0.7" stroke-linecap="round" stroke-linejoin="round"/><path d="M56 20 L56 80" fill="none" stroke="#354F58" stroke-width="0.7" stroke-linecap="round" stroke-linejoin="round"/><path d="M70 20 L70 80" fill="none" stroke="#354F58" stroke-width="0.7" stroke-linecap="round" stroke-linejoin="round"/><path d="M22 28 L78 28" fill="none" stroke="#354F58" stroke-width="0.7" stroke-linecap="round" stroke-linejoin="round"/><path d="M22 42 L78 42" fill="none" stroke="#354F58" stroke-width="0.7" stroke-linecap="round" stroke-linejoin="round"/><path d="M22 56 L78 56" fill="none" stroke="#354F58" stroke-width="0.7" stroke-linecap="round" stroke-linejoin="round"/><path d="M22 70 L78 70" fill="none" stroke="#354F58" stroke-width="0.7" stroke-linecap="round" stroke-linejoin="round"/><path d="M22 42 L42 20 M22 70 L70 20 M36 80 L78 38 M64 80 L78 66" fill="none" stroke="#354F58" stroke-width="0.7" stroke-linecap="round" stroke-linejoin="round"/></svg>