<svg xmlns="http://www.w3.org/2000/svg" width="40mm" height="40mm" viewBox="0 0 100 100"><rect x="22" y="12" width="59" height="78" rx="5" fill="#72ABA4" stroke="#344D55" stroke-width="0.7" stroke-linecap="round" stroke-linejoin="round"/><rect x="28" y="17" width="50" height="69" rx="3" fill="#FFF2D3" stroke="#344D55" stroke-width="0.7" stroke-linecap="round" stroke-linejoin="round"/><rect x="28" y="17" width="8" height="69" rx="1" fill="#E5AC4B" stroke="none" stroke-width="0.7" stroke-linecap="round" stroke-linejoin="round"/><rect x="42" y="29" width="28" height="19" rx="2" fill="#FFF2D3" stroke="#344D55" stroke-width="0.7" stroke-linecap="round" stroke-linejoin="round"/><path d="M48 36 L64 36 M48 41 L60 41 M43 61 L68 61 M43 67 L65 67" fill="none" stroke="#344D55" stroke-width="0.7" stroke-linecap="round" stroke-linejoin="round"/><path d="M19 24 C13 20 13 28 19 28 L29 28 C33 28 33 24 29 24 L24 24" fill="none" stroke="#344D55" stroke-width="0.7" stroke-linecap="round" stroke-linejoin="round"/><path d="M19 36 C13 32 13 40 19 40 L29 40 C33 40 33 36 29 36 L24 36" fill="none" stroke="#344D55" stroke-width="0.7" stroke-linecap="round" stroke-linejoin="round"/><path d="M19 48 C13 44 13 52 19 52 L29 52 C33 52 33 48 29 48 L24 48" fill="none" stroke="#344D55" stroke-width="0.7" stroke-linecap="round" stroke-linejoin="round"/><path d="M19 60 C13 56 13 64 19 64 L29 64 C33 64 33 60 29 60 L24 60" fill="none" stroke="#344D55" stroke-width="0.7" stroke-linecap="round" stroke-linejoin="round"/><path d="M19 72 C13 68 13 76 19 76 L29 76 C33 76 33 72 29 72 L24 72" fill="none" stroke="#344D55" stroke-width="0.7" stroke-linecap="round" stroke-linejoin="round"/><path d="M19 82 C13 78 13 86 19 86 L29 86 C33 86 33 82 29 82 L24 82" fill="none" stroke="#344D55" stroke-width="0.7" stroke-linecap="round" stroke-linejoin="round"/></svg>