<svg xmlns="http://www.w3.org/2000/svg" width="40mm" height="40mm" viewBox="0 0 100 100"><circle cx="50" cy="66" r="23" fill="#F2F6F2" stroke="#47616A" stroke-width="0.7" stroke-linecap="round" stroke-linejoin="round"/><circle cx="50" cy="34" r="16" fill="#F2F6F2" stroke="#47616A" stroke-width="0.7" stroke-linecap="round" stroke-linejoin="round"/><path d="M32 24 L68 24 L65 18 L58 18 L58 9 L39 9 L39 18 L35 18 Z" fill="#7095A7" stroke="#47616A" stroke-width="0.7" stroke-linecap="round" stroke-linejoin="round"/><path d="M35 45 Q50 49 65 44 L65 54 Q50 58 35 53 Z" fill="#D79764" stroke="#47616A" stroke-width="0.7" stroke-linecap="round" stroke-linejoin="round"/><path d="M59 53 L68 54 L67 71 L59 68 Z" fill="#D79764" stroke="#47616A" stroke-width="0.7" stroke-linecap="round" stroke-linejoin="round"/><circle cx="44" cy="32" r="1.5" fill="#47616A" stroke="none" stroke-width="0.7" stroke-linecap="round" stroke-linejoin="round"/><circle cx="55" cy="32" r="1.5" fill="#47616A" stroke="none" stroke-width="0.7" stroke-linecap="round" stroke-linejoin="round"/><path d="M50 37 L61 40 L50 42 Z" fill="#D79764" stroke="#47616A" stroke-width="0.7" stroke-linecap="round" stroke-linejoin="round"/><path d="M44 43 Q50 47 56 43" fill="none" stroke="#47616A" stroke-width="0.7" stroke-linecap="round" stroke-linejoin="round"/><circle cx="49" cy="64" r="1.8" fill="#47616A" stroke="#47616A" stroke-width="0.7" stroke-linecap="round" stroke-linejoin="round"/><circle cx="49" cy="76" r="1.8" fill="#47616A" stroke="#47616A" stroke-width="0.7" stroke-linecap="round" stroke-linejoin="round"/><path d="M28 58 L12 47 M17 51 L12 40 M72 57 L88 46 M82 50 L90 51" fill="none" stroke="#47616A" stroke-width="0.7" stroke-linecap="round" stroke-linejoin="round"/></svg>