<svg xmlns="http://www.w3.org/2000/svg" width="40mm" height="40mm" viewBox="0 0 100 100"><path d="M31 69 L14 73 L25 56 Z" fill="#B7885E" stroke="#46544E" stroke-width="0.7" stroke-linecap="round" stroke-linejoin="round"/><ellipse cx="49" cy="57" rx="25" ry="20" fill="#F5E7CC" stroke="#46544E" stroke-width="0.7" stroke-linecap="round" stroke-linejoin="round"/><circle cx="66" cy="37" r="14" fill="#B7885E" stroke="#46544E" stroke-width="0.7" stroke-linecap="round" stroke-linejoin="round"/><path d="M78 34 L90 40 L78 45 Z" fill="#B7885E" stroke="#46544E" stroke-width="0.7" stroke-linecap="round" stroke-linejoin="round"/><path d="M54 39 Q64 44 76 39 L74 49 L59 50 Z" fill="#F5E7CC" stroke="#46544E" stroke-width="0.7" stroke-linecap="round" stroke-linejoin="round"/><path d="M29 51 C44 39 65 49 59 62 C49 73 37 67 29 51 Z" fill="#B7885E" stroke="#46544E" stroke-width="0.7" stroke-linecap="round" stroke-linejoin="round"/><path d="M37 52 Q48 52 54 60 M43 78 L41 86 M56 78 L55 86 M35 87 L47 87 M50 87 L62 87" fill="none" stroke="#46544E" stroke-width="0.7" stroke-linecap="round" stroke-linejoin="round"/><circle cx="70" cy="35" r="1.8" fill="#46544E" stroke="none" stroke-width="0.7" stroke-linecap="round" stroke-linejoin="round"/></svg>