<svg xmlns="http://www.w3.org/2000/svg" width="40mm" height="40mm" viewBox="0 0 100 100"><path d="M33.8 63.84L50.2 63.84L52.66 80.24L46.1 81.06L42 68.76L37.9 81.06L31.34 80.24Z" fill="#759A97" stroke="#344A59" stroke-width="0.5" stroke-linecap="round" stroke-linejoin="round"/><path d="M42 65.48L42 68.76M35.44 67.12L33.8 76.96M47.74 67.12L49.38 76.96" fill="none" stroke="#344A59" stroke-width="0.5" stroke-linecap="round" stroke-linejoin="round"/><path d="M31.34 80.24L37.08 80.24L37.9 85.16C36.26 87.62 29.7 87.62 27.24 85.98L27.24 84.34Q28.06 81.88 31.34 81.88Z" fill="#344A59" stroke="#344A59" stroke-width="0.5" stroke-linecap="round" stroke-linejoin="round"/><path d="M46.92 80.24L52.66 80.24L52.66 82.7Q58.4 82.7 59.22 85.16L59.22 86.8L46.1 86.8L46.1 84.34Z" fill="#344A59" stroke="#344A59" stroke-width="0.5" stroke-linecap="round" stroke-linejoin="round"/><path d="M28.06 85.98L37.08 85.98M46.92 85.98L58.4 85.98" fill="none" stroke="#F2D3AF" stroke-width="0.5" stroke-linecap="round" stroke-linejoin="round"/><path d="M31.34 83.52L34.62 84.34M49.38 83.52L52.66 84.34" fill="none" stroke="#F2D3AF" stroke-width="0.5" stroke-linecap="round" stroke-linejoin="round"/><path d="M35.44 44.16Q31.34 44.98 28.88 49.08L32.98 54L33.8 64.66Q42 67.12 50.2 64.66L51.02 54L55.12 49.08Q52.66 44.98 48.56 44.16L45.28 46.62L38.72 46.62Z" fill="#C47762" stroke="#344A59" stroke-width="0.5" stroke-linecap="round" stroke-linejoin="round"/><path d="M36.26 44.16L41.18 49.08L38.72 51.54L33.8 45.8Z" fill="#F2D3AF" stroke="#344A59" stroke-width="0.5" stroke-linecap="round" stroke-linejoin="round"/><path d="M47.74 44.16L42.82 49.08L45.28 51.54L50.2 45.8Z" fill="#F2D3AF" stroke="#344A59" stroke-width="0.5" stroke-linecap="round" stroke-linejoin="round"/><path d="M42 49.08L42 64.66M35.44 60.56L38.72 61.38M46.1 61.38L48.56 60.56" fill="none" stroke="#344A59" stroke-width="0.5" stroke-linecap="round" stroke-linejoin="round"/><path d="M37.9 38.42L37.9 44.98Q42 48.26 46.1 44.98L46.1 38.42Z" fill="#F2D3AF" stroke="#344A59" stroke-width="0.5" stroke-linecap="round" stroke-linejoin="round"/><circle cx="32.816" cy="32.68" r="1.9679999999999997" fill="#F2D3AF" stroke="#344A59" stroke-width="0.5" stroke-linecap="round" stroke-linejoin="round"/><circle cx="51.184" cy="32.68" r="1.9679999999999997" fill="#F2D3AF" stroke="#344A59" stroke-width="0.5" stroke-linecap="round" stroke-linejoin="round"/><path d="M32.98 27.76C32.98 19.56 50.2 19.56 51.02 27.76L51.02 34.32C51.02 40.06 46.92 43.34 42 43.34C37.08 43.34 32.98 39.24 32.98 34.32Z" fill="#F2D3AF" stroke="#344A59" stroke-width="0.5" stroke-linecap="round" stroke-linejoin="round"/><path d="M32.16 30.22C29.7 22.84 33.8 17.92 42 18.74C49.38 17.92 53.48 23.66 51.84 31.86L49.38 31.04L47.74 25.3C43.64 29.4 37.9 30.22 33.8 27.76L33.8 32.68Z" fill="#344A59" stroke="#344A59" stroke-width="0.5" stroke-linecap="round" stroke-linejoin="round"/><path d="M36.26 32.68Q37.9 31.86 38.72 32.68M45.28 32.68Q46.92 31.86 47.74 32.68" fill="none" stroke="#344A59" stroke-width="0.5" stroke-linecap="round" stroke-linejoin="round"/><circle cx="37.9" cy="34.32" r="0.574" fill="#344A59" stroke="none" stroke-width="0.5" stroke-linecap="round" stroke-linejoin="round"/><circle cx="46.1" cy="34.32" r="0.574" fill="#344A59" stroke="none" stroke-width="0.5" stroke-linecap="round" stroke-linejoin="round"/><path d="M42 34.32L41.18 36.78L42.82 36.78M38.72 39.24Q42 41.7 45.28 39.24" fill="none" stroke="#344A59" stroke-width="0.5" stroke-linecap="round" stroke-linejoin="round"/><path d="M29.7 49.08L24.78 58.92L23.14 64.66L26.42 65.48L28.88 60.56L33.8 53.18Z" fill="#F2D3AF" stroke="#344A59" stroke-width="0.5" stroke-linecap="round" stroke-linejoin="round"/><path d="M25.994 66.546C26.617 67.169 27.24 68.104 26.928 68.727C26.617 69.039 26.305 68.727 25.994 68.104L25.994 70.285C25.994 70.908 25.37 70.908 25.37 70.285L25.37 68.727L25.059 70.908C25.059 71.22 24.436 71.22 24.436 70.597L24.436 68.727L24.124 70.597C24.124 70.908 23.501 70.908 23.501 70.285L23.501 68.416L23.189 69.662C22.878 70.285 22.254 69.974 22.566 69.35L22.878 67.169C22.878 65.923 24.124 65.3 25.37 65.611Z" fill="#F2D3AF" stroke="#344A59" stroke-width="0.5" stroke-linecap="round" stroke-linejoin="round"/><path d="M25.37 68.104L25.37 67.169M24.436 68.104L24.436 66.858M23.501 67.792L23.501 66.858M25.994 67.481Q25.059 67.792 24.747 66.858" fill="none" stroke="#344A59" stroke-width="0.5" stroke-linecap="round" stroke-linejoin="round"/><path d="M54.3 49.08L57.58 58.92L59.22 64.66L55.94 65.48L54.3 59.74L50.2 53.18Z" fill="#F2D3AF" stroke="#344A59" stroke-width="0.5" stroke-linecap="round" stroke-linejoin="round"/><path d="M58.794 66.546C59.417 67.169 60.04 68.104 59.728 68.727C59.417 69.039 59.105 68.727 58.794 68.104L58.794 70.285C58.794 70.908 58.17 70.908 58.17 70.285L58.17 68.727L57.859 70.908C57.859 71.22 57.236 71.22 57.236 70.597L57.236 68.727L56.924 70.597C56.924 70.908 56.301 70.908 56.301 70.285L56.301 68.416L55.989 69.662C55.678 70.285 55.054 69.974 55.366 69.35L55.678 67.169C55.678 65.923 56.924 65.3 58.17 65.611Z" fill="#F2D3AF" stroke="#344A59" stroke-width="0.5" stroke-linecap="round" stroke-linejoin="round"/><path d="M58.17 68.104L58.17 67.169M57.236 68.104L57.236 66.858M56.301 67.792L56.301 66.858M58.794 67.481Q57.859 67.792 57.547 66.858" fill="none" stroke="#344A59" stroke-width="0.5" stroke-linecap="round" stroke-linejoin="round"/><path d="M68.8 63.84L85.2 63.84L87.66 80.24L81.1 81.06L77 68.76L72.9 81.06L66.34 80.24Z" fill="#759A97" stroke="#344A59" stroke-width="0.5" stroke-linecap="round" stroke-linejoin="round"/><path d="M77 65.48L77 68.76M70.44 67.12L68.8 76.96M82.74 67.12L84.38 76.96" fill="none" stroke="#344A59" stroke-width="0.5" stroke-linecap="round" stroke-linejoin="round"/><path d="M66.34 80.24L72.08 80.24L72.9 85.16C71.26 87.62 64.7 87.62 62.24 85.98L62.24 84.34Q63.06 81.88 66.34 81.88Z" fill="#344A59" stroke="#344A59" stroke-width="0.5" stroke-linecap="round" stroke-linejoin="round"/><path d="M81.92 80.24L87.66 80.24L87.66 82.7Q93.4 82.7 94.22 85.16L94.22 86.8L81.1 86.8L81.1 84.34Z" fill="#344A59" stroke="#344A59" stroke-width="0.5" stroke-linecap="round" stroke-linejoin="round"/><path d="M63.06 85.98L72.08 85.98M81.92 85.98L93.4 85.98" fill="none" stroke="#F2D3AF" stroke-width="0.5" stroke-linecap="round" stroke-linejoin="round"/><path d="M66.34 83.52L69.62 84.34M84.38 83.52L87.66 84.34" fill="none" stroke="#F2D3AF" stroke-width="0.5" stroke-linecap="round" stroke-linejoin="round"/><path d="M70.44 44.16Q66.34 44.98 63.88 49.08L67.98 54L68.8 64.66Q77 67.12 85.2 64.66L86.02 54L90.12 49.08Q87.66 44.98 83.56 44.16L80.28 46.62L73.72 46.62Z" fill="#759A97" stroke="#344A59" stroke-width="0.5" stroke-linecap="round" stroke-linejoin="round"/><path d="M71.26 44.16L76.18 49.08L73.72 51.54L68.8 45.8Z" fill="#F2D3AF" stroke="#344A59" stroke-width="0.5" stroke-linecap="round" stroke-linejoin="round"/><path d="M82.74 44.16L77.82 49.08L80.28 51.54L85.2 45.8Z" fill="#F2D3AF" stroke="#344A59" stroke-width="0.5" stroke-linecap="round" stroke-linejoin="round"/><path d="M77 49.08L77 64.66M70.44 60.56L73.72 61.38M81.1 61.38L83.56 60.56" fill="none" stroke="#344A59" stroke-width="0.5" stroke-linecap="round" stroke-linejoin="round"/><circle cx="87.66" cy="24.48" r="4.92" fill="#344A59" stroke="#344A59" stroke-width="0.5" stroke-linecap="round" stroke-linejoin="round"/><path d="M72.9 38.42L72.9 44.98Q77 48.26 81.1 44.98L81.1 38.42Z" fill="#F2D3AF" stroke="#344A59" stroke-width="0.5" stroke-linecap="round" stroke-linejoin="round"/><circle cx="67.816" cy="32.68" r="1.9679999999999997" fill="#F2D3AF" stroke="#344A59" stroke-width="0.5" stroke-linecap="round" stroke-linejoin="round"/><circle cx="86.184" cy="32.68" r="1.9679999999999997" fill="#F2D3AF" stroke="#344A59" stroke-width="0.5" stroke-linecap="round" stroke-linejoin="round"/><path d="M67.98 27.76C67.98 19.56 85.2 19.56 86.02 27.76L86.02 34.32C86.02 40.06 81.92 43.34 77 43.34C72.08 43.34 67.98 39.24 67.98 34.32Z" fill="#F2D3AF" stroke="#344A59" stroke-width="0.5" stroke-linecap="round" stroke-linejoin="round"/><path d="M67.16 30.22C64.7 22.84 68.8 17.92 77 18.74C84.38 17.92 88.48 23.66 86.84 31.86L84.38 31.04L82.74 25.3C78.64 29.4 72.9 30.22 68.8 27.76L68.8 32.68Z" fill="#344A59" stroke="#344A59" stroke-width="0.5" stroke-linecap="round" stroke-linejoin="round"/><path d="M71.26 32.68Q72.9 31.86 73.72 32.68M80.28 32.68Q81.92 31.86 82.74 32.68" fill="none" stroke="#344A59" stroke-width="0.5" stroke-linecap="round" stroke-linejoin="round"/><circle cx="72.9" cy="34.32" r="0.574" fill="#344A59" stroke="none" stroke-width="0.5" stroke-linecap="round" stroke-linejoin="round"/><circle cx="81.1" cy="34.32" r="0.574" fill="#344A59" stroke="none" stroke-width="0.5" stroke-linecap="round" stroke-linejoin="round"/><path d="M77 34.32L76.18 36.78L77.82 36.78M73.72 39.24Q77 41.7 80.28 39.24" fill="none" stroke="#344A59" stroke-width="0.5" stroke-linecap="round" stroke-linejoin="round"/><path d="M64.7 49.08L59.78 58.92L58.14 64.66L61.42 65.48L63.88 60.56L68.8 53.18Z" fill="#F2D3AF" stroke="#344A59" stroke-width="0.5" stroke-linecap="round" stroke-linejoin="round"/><path d="M60.994 66.546C61.617 67.169 62.24 68.104 61.928 68.727C61.617 69.039 61.305 68.727 60.994 68.104L60.994 70.285C60.994 70.908 60.37 70.908 60.37 70.285L60.37 68.727L60.059 70.908C60.059 71.22 59.436 71.22 59.436 70.597L59.436 68.727L59.124 70.597C59.124 70.908 58.501 70.908 58.501 70.285L58.501 68.416L58.189 69.662C57.878 70.285 57.254 69.974 57.566 69.35L57.878 67.169C57.878 65.923 59.124 65.3 60.37 65.611Z" fill="#F2D3AF" stroke="#344A59" stroke-width="0.5" stroke-linecap="round" stroke-linejoin="round"/><path d="M60.37 68.104L60.37 67.169M59.436 68.104L59.436 66.858M58.501 67.792L58.501 66.858M60.994 67.481Q60.059 67.792 59.747 66.858" fill="none" stroke="#344A59" stroke-width="0.5" stroke-linecap="round" stroke-linejoin="round"/><path d="M89.3 49.08L92.58 58.92L94.22 64.66L90.94 65.48L89.3 59.74L85.2 53.18Z" fill="#F2D3AF" stroke="#344A59" stroke-width="0.5" stroke-linecap="round" stroke-linejoin="round"/><path d="M93.794 66.546C94.417 67.169 95.04 68.104 94.728 68.727C94.417 69.039 94.105 68.727 93.794 68.104L93.794 70.285C93.794 70.908 93.17 70.908 93.17 70.285L93.17 68.727L92.859 70.908C92.859 71.22 92.236 71.22 92.236 70.597L92.236 68.727L91.924 70.597C91.924 70.908 91.301 70.908 91.301 70.285L91.301 68.416L90.989 69.662C90.678 70.285 90.054 69.974 90.366 69.35L90.678 67.169C90.678 65.923 91.924 65.3 93.17 65.611Z" fill="#F2D3AF" stroke="#344A59" stroke-width="0.5" stroke-linecap="round" stroke-linejoin="round"/><path d="M93.17 68.104L93.17 67.169M92.236 68.104L92.236 66.858M91.301 67.792L91.301 66.858M93.794 67.481Q92.859 67.792 92.547 66.858" fill="none" stroke="#344A59" stroke-width="0.5" stroke-linecap="round" stroke-linejoin="round"/></svg>