<svg xmlns="http://www.w3.org/2000/svg" width="40mm" height="40mm" viewBox="0 0 100 100"><path d="M36 15 Q50 3 64 15 L67 39 L33 39Z" fill="#344C5C" stroke="#344C5C" stroke-width="0.7" stroke-linecap="round" stroke-linejoin="round"/><path d="M40 65 L40 83 L32 88 L32 91 L47 91 L49 68Z" fill="#709C9B" stroke="#344C5C" stroke-width="0.7" stroke-linecap="round" stroke-linejoin="round"/><path d="M51 67 L55 85 L55 91 L71 91 L71 87 L64 83 L62 65Z" fill="#709C9B" stroke="#344C5C" stroke-width="0.7" stroke-linecap="round" stroke-linejoin="round"/><path d="M43 36 L57 36 L64 43 L62 67 L38 67 L36 43Z" fill="#709C9B" stroke="#344C5C" stroke-width="0.7" stroke-linecap="round" stroke-linejoin="round"/><path d="M45 37 L50 43 L55 37" fill="#F3D5AB" stroke="#344C5C" stroke-width="0.7" stroke-linecap="round" stroke-linejoin="round"/><circle cx="50" cy="25" r="11" fill="#F3D5AB" stroke="#344C5C" stroke-width="0.7" stroke-linecap="round" stroke-linejoin="round"/><path d="M39 24 Q37 9 50 11 Q64 11 61 25 Q57 23 55 17 Q49 24 39 24Z" fill="#344C5C" stroke="#344C5C" stroke-width="0.7" stroke-linecap="round" stroke-linejoin="round"/><path d="M46 26 L46 27 M54 26 L54 27 M47 31 Q50 33 53 31" fill="none" stroke="#344C5C" stroke-width="0.7" stroke-linecap="round" stroke-linejoin="round"/><path d="M23 46 Q37 43 50 51 Q63 43 77 46 L75 65 Q63 61 50 69 Q36 61 25 65Z" fill="#F3D5AB" stroke="#344C5C" stroke-width="0.7" stroke-linecap="round" stroke-linejoin="round"/><path d="M50 51 L50 69 M29 51 L41 54 M29 56 L41 59 M59 54 L70 51 M59 59 L70 56" fill="none" stroke="#344C5C" stroke-width="0.7" stroke-linecap="round" stroke-linejoin="round"/><circle cx="29" cy="60" r="4" fill="#F3D5AB" stroke="#344C5C" stroke-width="0.7" stroke-linecap="round" stroke-linejoin="round"/><circle cx="72" cy="60" r="4" fill="#F3D5AB" stroke="#344C5C" stroke-width="0.7" stroke-linecap="round" stroke-linejoin="round"/><path d="M42 25 L48 25 L48 30 L42 30Z M52 25 L58 25 L58 30 L52 30Z M48 27 L52 27" fill="none" stroke="#344C5C" stroke-width="0.7" stroke-linecap="round" stroke-linejoin="round"/></svg>