<svg xmlns="http://www.w3.org/2000/svg" width="40mm" height="40mm" viewBox="0 0 100 100"><path d="M40 65 L40 83 L32 88 L32 91 L47 91 L49 68Z" fill="#709C9B" stroke="#344C5C" stroke-width="0.7" stroke-linecap="round" stroke-linejoin="round"/><path d="M51 67 L55 85 L55 91 L71 91 L71 87 L64 83 L62 65Z" fill="#709C9B" stroke="#344C5C" stroke-width="0.7" stroke-linecap="round" stroke-linejoin="round"/><path d="M43 36 L57 36 L64 43 L62 67 L38 67 L36 43Z" fill="#CE775F" stroke="#344C5C" stroke-width="0.7" stroke-linecap="round" stroke-linejoin="round"/><path d="M45 37 L50 43 L55 37" fill="#F3D5AB" stroke="#344C5C" stroke-width="0.7" stroke-linecap="round" stroke-linejoin="round"/><circle cx="64" cy="17" r="7" fill="#344C5C" stroke="#344C5C" stroke-width="0.7" stroke-linecap="round" stroke-linejoin="round"/><circle cx="50" cy="25" r="11" fill="#F3D5AB" stroke="#344C5C" stroke-width="0.7" stroke-linecap="round" stroke-linejoin="round"/><path d="M39 24 Q37 9 50 11 Q64 11 61 25 Q57 23 55 17 Q49 24 39 24Z" fill="#344C5C" stroke="#344C5C" stroke-width="0.7" stroke-linecap="round" stroke-linejoin="round"/><path d="M46 26 L46 27 M54 26 L54 27 M47 31 Q50 33 53 31" fill="none" stroke="#344C5C" stroke-width="0.7" stroke-linecap="round" stroke-linejoin="round"/><path d="M38 43 L27 52 L24 45 L20 47 L24 61 L41 50Z" fill="#F3D5AB" stroke="#344C5C" stroke-width="0.7" stroke-linecap="round" stroke-linejoin="round"/><path d="M22 47 L17 27 L20 26 L26 46Z" fill="#709C9B" stroke="#344C5C" stroke-width="0.7" stroke-linecap="round" stroke-linejoin="round"/><path d="M17 27 Q12 22 16 17 Q22 19 20 26Z" fill="#CE775F" stroke="#344C5C" stroke-width="0.7" stroke-linecap="round" stroke-linejoin="round"/><path d="M62 44 L73 54 L66 61 L61 56 L66 53 L57 48Z" fill="#F3D5AB" stroke="#344C5C" stroke-width="0.7" stroke-linecap="round" stroke-linejoin="round"/><path d="M56 61 Q51 71 60 76 Q79 80 84 64 Q83 54 72 55 Q69 61 63 59Z" fill="#F3D5AB" stroke="#344C5C" stroke-width="0.7" stroke-linecap="round" stroke-linejoin="round"/><circle cx="73" cy="63" r="2.7" fill="#CE775F" stroke="#344C5C" stroke-width="0.7" stroke-linecap="round" stroke-linejoin="round"/><circle cx="77" cy="69" r="2.7" fill="#709C9B" stroke="#344C5C" stroke-width="0.7" stroke-linecap="round" stroke-linejoin="round"/><circle cx="65" cy="70" r="2.7" fill="#CE775F" stroke="#344C5C" stroke-width="0.7" stroke-linecap="round" stroke-linejoin="round"/><circle cx="59" cy="65" r="2" fill="none" stroke="#344C5C" stroke-width="0.7" stroke-linecap="round" stroke-linejoin="round"/></svg>