<svg xmlns="http://www.w3.org/2000/svg" width="40mm" height="40mm" viewBox="0 0 100 100"><path d="M38 60 L49 63 L40 76 L35 82 L30 80 L33 73Z" fill="#F2D3AF" stroke="#344A59" stroke-width="0.5" stroke-linecap="round" stroke-linejoin="round"/><path d="M53 62 L61 61 L64 76 L69 81 L65 85 L58 80Z" fill="#F2D3AF" stroke="#344A59" stroke-width="0.5" stroke-linecap="round" stroke-linejoin="round"/><path d="M29 78 L36 81 L34 85 Q33 89 26 89 L23 87 L25 83Z" fill="#344A59" stroke="#344A59" stroke-width="0.5" stroke-linecap="round" stroke-linejoin="round"/><path d="M65 81 L69 79 L73 83 Q79 82 81 87 L80 90 L66 88Z" fill="#344A59" stroke="#344A59" stroke-width="0.5" stroke-linecap="round" stroke-linejoin="round"/><path d="M25 86 L33 87 M68 87 L79 88" fill="none" stroke="#F2D3AF" stroke-width="0.5" stroke-linecap="round" stroke-linejoin="round"/><path d="M39 56 L60 56 L64 66 L53 69 L49 65 L40 69 L35 65Z" fill="#759A97" stroke="#344A59" stroke-width="0.5" stroke-linecap="round" stroke-linejoin="round"/><path d="M42 38 Q37 39 34 44 L39 50 L40 63 Q50 66 60 63 L61 50 L66 44 Q63 39 58 38 L54 41 L46 41Z" fill="#C47762" stroke="#344A59" stroke-width="0.5" stroke-linecap="round" stroke-linejoin="round"/><path d="M43 38 L49 44 L46 47 L40 40Z" fill="#F2D3AF" stroke="#344A59" stroke-width="0.5" stroke-linecap="round" stroke-linejoin="round"/><path d="M57 38 L51 44 L54 47 L60 40Z" fill="#F2D3AF" stroke="#344A59" stroke-width="0.5" stroke-linecap="round" stroke-linejoin="round"/><path d="M50 44 L50 63 M42 58 L46 59 M55 59 L58 58" fill="none" stroke="#344A59" stroke-width="0.5" stroke-linecap="round" stroke-linejoin="round"/><path d="M43 42 L43 56 M57 42 L57 56 M45 58 L55 58" fill="none" stroke="#344A59" stroke-width="0.5" stroke-linecap="round" stroke-linejoin="round"/><path d="M45 31 L45 39 Q50 43 55 39 L55 31Z" fill="#F2D3AF" stroke="#344A59" stroke-width="0.5" stroke-linecap="round" stroke-linejoin="round"/><circle cx="38.8" cy="24" r="2.4" fill="#F2D3AF" stroke="#344A59" stroke-width="0.5" stroke-linecap="round" stroke-linejoin="round"/><circle cx="61.2" cy="24" r="2.4" fill="#F2D3AF" stroke="#344A59" stroke-width="0.5" stroke-linecap="round" stroke-linejoin="round"/><path d="M39 18 C39 8 60 8 61 18 L61 26 C61 33 56 37 50 37 C44 37 39 32 39 26Z" fill="#F2D3AF" stroke="#344A59" stroke-width="0.5" stroke-linecap="round" stroke-linejoin="round"/><path d="M38 21 C35 12 40 6 50 7 C59 6 64 13 62 23 L59 22 L57 15 C52 20 45 21 40 18 L40 24Z" fill="#344A59" stroke="#344A59" stroke-width="0.5" stroke-linecap="round" stroke-linejoin="round"/><path d="M43 24 Q45 23 46 24 M54 24 Q56 23 57 24" fill="none" stroke="#344A59" stroke-width="0.5" stroke-linecap="round" stroke-linejoin="round"/><circle cx="45" cy="26" r="0.7" fill="#344A59" stroke="none" stroke-width="0.5" stroke-linecap="round" stroke-linejoin="round"/><circle cx="55" cy="26" r="0.7" fill="#344A59" stroke="none" stroke-width="0.5" stroke-linecap="round" stroke-linejoin="round"/><path d="M50 26 L49 29 L51 29 M46 32 Q50 35 54 32" fill="none" stroke="#344A59" stroke-width="0.5" stroke-linecap="round" stroke-linejoin="round"/><path d="M35 44 L26 53 L18 50 L16 54 L26 60 L40 49Z" fill="#F2D3AF" stroke="#344A59" stroke-width="0.5" stroke-linecap="round" stroke-linejoin="round"/><path d="M17.447 52.122C16.461 52.036 15.25 51.681 15.068 50.92C15.111 50.427 15.604 50.47 16.322 50.781L14.747 48.904C14.297 48.368 14.834 47.918 15.284 48.454L16.408 49.795L15.102 47.693C14.877 47.425 15.413 46.975 15.863 47.511L17.213 49.12L16.131 47.286C15.906 47.018 16.442 46.568 16.892 47.105L18.242 48.713L17.61 47.416C17.429 46.655 18.19 46.473 18.372 47.234L19.678 49.336C20.578 50.408 19.956 51.844 18.658 52.476Z" fill="#F2D3AF" stroke="#344A59" stroke-width="0.5" stroke-linecap="round" stroke-linejoin="round"/><path d="M16.858 50.331L17.533 51.136M17.663 49.656L18.563 50.729M18.692 49.25L19.367 50.054M16.772 51.317Q17.352 50.374 18.295 50.954" fill="none" stroke="#344A59" stroke-width="0.5" stroke-linecap="round" stroke-linejoin="round"/><path d="M65 44 L71 54 L79 60 L77 64 L67 59 L60 49Z" fill="#F2D3AF" stroke="#344A59" stroke-width="0.5" stroke-linecap="round" stroke-linejoin="round"/><circle cx="79" cy="75" r="11" fill="#C47762" stroke="#344A59" stroke-width="0.5" stroke-linecap="round" stroke-linejoin="round"/><path d="M68 75 L90 75 M79 64 L79 86 M71 68 Q79 75 71 82 M87 68 Q79 75 87 82" fill="none" stroke="#344A59" stroke-width="0.5" stroke-linecap="round" stroke-linejoin="round"/><path d="M74.992 65.675C74.384 64.622 73.887 63.153 74.525 62.434C75.052 62.13 75.356 62.657 75.548 63.599L76.328 60.691C76.55 59.861 77.381 60.083 77.158 60.914L76.602 62.991L77.796 60.194C77.907 59.779 78.738 60.002 78.516 60.832L77.848 63.324L78.931 60.944C79.042 60.528 79.873 60.751 79.65 61.582L78.983 64.074L79.843 62.524C80.481 61.804 81.2 62.442 80.562 63.161L79.368 65.958C78.923 67.619 77.039 68.005 75.489 67.144Z" fill="#F2D3AF" stroke="#344A59" stroke-width="0.5" stroke-linecap="round" stroke-linejoin="round"/><path d="M76.379 63.821L76.045 65.067M77.625 64.155L77.18 65.817M78.76 64.904L78.426 66.15M75.326 64.429Q76.683 64.348 76.765 65.705" fill="none" stroke="#344A59" stroke-width="0.5" stroke-linecap="round" stroke-linejoin="round"/></svg>