<svg xmlns="http://www.w3.org/2000/svg" width="40mm" height="40mm" viewBox="0 0 100 100"><path d="M40 62 L60 62 L63 82 L55 83 L50 68 L45 83 L37 82Z" fill="#759A97" stroke="#344A59" stroke-width="0.5" stroke-linecap="round" stroke-linejoin="round"/><path d="M50 64 L50 68 M42 66 L40 78 M57 66 L59 78" fill="none" stroke="#344A59" stroke-width="0.5" stroke-linecap="round" stroke-linejoin="round"/><path d="M37 82 L44 82 L45 88 C43 91 35 91 32 89 L32 87 Q33 84 37 84Z" fill="#344A59" stroke="#344A59" stroke-width="0.5" stroke-linecap="round" stroke-linejoin="round"/><path d="M56 82 L63 82 L63 85 Q70 85 71 88 L71 90 L55 90 L55 87Z" fill="#344A59" stroke="#344A59" stroke-width="0.5" stroke-linecap="round" stroke-linejoin="round"/><path d="M33 89 L44 89 M56 89 L70 89" fill="none" stroke="#F2D3AF" stroke-width="0.5" stroke-linecap="round" stroke-linejoin="round"/><path d="M37 86 L41 87 M59 86 L63 87" fill="none" stroke="#F2D3AF" stroke-width="0.5" stroke-linecap="round" stroke-linejoin="round"/><path d="M42 38 Q37 39 34 44 L39 50 L40 63 Q50 66 60 63 L61 50 L66 44 Q63 39 58 38 L54 41 L46 41Z" fill="#759A97" stroke="#344A59" stroke-width="0.5" stroke-linecap="round" stroke-linejoin="round"/><path d="M43 38 L49 44 L46 47 L40 40Z" fill="#F2D3AF" stroke="#344A59" stroke-width="0.5" stroke-linecap="round" stroke-linejoin="round"/><path d="M57 38 L51 44 L54 47 L60 40Z" fill="#F2D3AF" stroke="#344A59" stroke-width="0.5" stroke-linecap="round" stroke-linejoin="round"/><path d="M50 44 L50 63 M42 58 L46 59 M55 59 L58 58" fill="none" stroke="#344A59" stroke-width="0.5" stroke-linecap="round" stroke-linejoin="round"/><path d="M35 44 L26 37 L25 28 L20 28 L20 40 Q23 44 31 49Z" fill="#F2D3AF" stroke="#344A59" stroke-width="0.5" stroke-linecap="round" stroke-linejoin="round"/><path d="M19.92 26.6C18.96 25.64 18 24.2 18.48 23.24C18.96 22.76 19.44 23.24 19.92 24.2L19.92 20.84C19.92 19.88 20.88 19.88 20.88 20.84L20.88 23.24L21.36 19.88C21.36 19.4 22.32 19.4 22.32 20.36L22.32 23.24L22.8 20.36C22.8 19.88 23.76 19.88 23.76 20.84L23.76 23.72L24.24 21.8C24.72 20.84 25.68 21.32 25.2 22.28L24.72 25.64C24.72 27.56 22.8 28.52 20.88 28.04Z" fill="#F2D3AF" stroke="#344A59" stroke-width="0.5" stroke-linecap="round" stroke-linejoin="round"/><path d="M20.88 24.2L20.88 25.64M22.32 24.2L22.32 26.12M23.76 24.68L23.76 26.12M19.92 25.16Q21.36 24.68 21.84 26.12" fill="none" stroke="#344A59" stroke-width="0.5" stroke-linecap="round" stroke-linejoin="round"/><path d="M65 44 L71 53 L64 59 L61 55 L66 52 L61 48Z" fill="#F2D3AF" stroke="#344A59" stroke-width="0.5" stroke-linecap="round" stroke-linejoin="round"/><circle cx="40" cy="13" r="4" fill="#344A59" stroke="#344A59" stroke-width="0.5" stroke-linecap="round" stroke-linejoin="round"/><circle cx="46" cy="10" r="4" fill="#344A59" stroke="#344A59" stroke-width="0.5" stroke-linecap="round" stroke-linejoin="round"/><circle cx="53" cy="10" r="4" fill="#344A59" stroke="#344A59" stroke-width="0.5" stroke-linecap="round" stroke-linejoin="round"/><circle cx="60" cy="13" r="4" fill="#344A59" stroke="#344A59" stroke-width="0.5" stroke-linecap="round" stroke-linejoin="round"/><path d="M45 31 L45 39 Q50 43 55 39 L55 31Z" fill="#F2D3AF" stroke="#344A59" stroke-width="0.5" stroke-linecap="round" stroke-linejoin="round"/><circle cx="38.8" cy="24" r="2.4" fill="#F2D3AF" stroke="#344A59" stroke-width="0.5" stroke-linecap="round" stroke-linejoin="round"/><circle cx="61.2" cy="24" r="2.4" fill="#F2D3AF" stroke="#344A59" stroke-width="0.5" stroke-linecap="round" stroke-linejoin="round"/><path d="M39 18 C39 8 60 8 61 18 L61 26 C61 33 56 37 50 37 C44 37 39 32 39 26Z" fill="#F2D3AF" stroke="#344A59" stroke-width="0.5" stroke-linecap="round" stroke-linejoin="round"/><path d="M38 21 C35 12 40 6 50 7 C59 6 64 13 62 23 L59 22 L57 15 C52 20 45 21 40 18 L40 24Z" fill="#344A59" stroke="#344A59" stroke-width="0.5" stroke-linecap="round" stroke-linejoin="round"/><path d="M43 24 Q45 23 46 24 M54 24 Q56 23 57 24" fill="none" stroke="#344A59" stroke-width="0.5" stroke-linecap="round" stroke-linejoin="round"/><circle cx="45" cy="26" r="0.7" fill="#344A59" stroke="none" stroke-width="0.5" stroke-linecap="round" stroke-linejoin="round"/><circle cx="55" cy="26" r="0.7" fill="#344A59" stroke="none" stroke-width="0.5" stroke-linecap="round" stroke-linejoin="round"/><path d="M50 26 L49 29 L51 29 M46 32 Q50 35 54 32" fill="none" stroke="#344A59" stroke-width="0.5" stroke-linecap="round" stroke-linejoin="round"/><rect x="52" y="47" width="18" height="21" rx="1" fill="#F2D3AF" stroke="#344A59" stroke-width="0.5" stroke-linecap="round" stroke-linejoin="round"/><path d="M56 52 L65 52 M56 56 L63 56 M56 60 L65 60" fill="none" stroke="#344A59" stroke-width="0.5" stroke-linecap="round" stroke-linejoin="round"/><path d="M61.75 58.4C62.45 57.7 63.5 57 64.2 57.35C64.55 57.7 64.2 58.05 63.5 58.4L65.95 58.4C66.65 58.4 66.65 59.1 65.95 59.1L64.2 59.1L66.65 59.45C67 59.45 67 60.15 66.3 60.15L64.2 60.15L66.3 60.5C66.65 60.5 66.65 61.2 65.95 61.2L63.85 61.2L65.25 61.55C65.95 61.9 65.6 62.6 64.9 62.25L62.45 61.9C61.05 61.9 60.35 60.5 60.7 59.1Z" fill="#F2D3AF" stroke="#344A59" stroke-width="0.5" stroke-linecap="round" stroke-linejoin="round"/><path d="M63.5 59.1L62.45 59.1M63.5 60.15L62.1 60.15M63.15 61.2L62.1 61.2M62.8 58.4Q63.15 59.45 62.1 59.8" fill="none" stroke="#344A59" stroke-width="0.5" stroke-linecap="round" stroke-linejoin="round"/></svg>