<svg xmlns="http://www.w3.org/2000/svg" width="40mm" height="40mm" viewBox="0 0 100 100"><path d="M35 16 Q50 5 64 17 L67 47 L32 47Z" fill="#344C5C" stroke="#344C5C" stroke-width="0.7" stroke-linecap="round" stroke-linejoin="round"/><path d="M40 65 L40 83 L32 88 L32 91 L47 91 L49 68Z" fill="#709C9B" stroke="#344C5C" stroke-width="0.7" stroke-linecap="round" stroke-linejoin="round"/><path d="M51 67 L55 85 L55 91 L71 91 L71 87 L64 83 L62 65Z" fill="#709C9B" stroke="#344C5C" stroke-width="0.7" stroke-linecap="round" stroke-linejoin="round"/><path d="M43 36 L57 36 L64 43 L62 67 L38 67 L36 43Z" fill="#709C9B" stroke="#344C5C" stroke-width="0.7" stroke-linecap="round" stroke-linejoin="round"/><path d="M45 37 L50 43 L55 37" fill="#F3D5AB" stroke="#344C5C" stroke-width="0.7" stroke-linecap="round" stroke-linejoin="round"/><circle cx="50" cy="25" r="11" fill="#F3D5AB" stroke="#344C5C" stroke-width="0.7" stroke-linecap="round" stroke-linejoin="round"/><path d="M39 24 Q37 9 50 11 Q64 11 61 25 Q57 23 55 17 Q49 24 39 24Z" fill="#344C5C" stroke="#344C5C" stroke-width="0.7" stroke-linecap="round" stroke-linejoin="round"/><path d="M46 26 L46 27 M54 26 L54 27 M47 31 Q50 33 53 31" fill="none" stroke="#344C5C" stroke-width="0.7" stroke-linecap="round" stroke-linejoin="round"/><path d="M48 32 L54 32 L59 67 L52 68Z" fill="#F3D5AB" stroke="#344C5C" stroke-width="0.7" stroke-linecap="round" stroke-linejoin="round"/><path d="M39 43 L43 51 L53 45 L57 49 L43 58 L34 48Z" fill="#F3D5AB" stroke="#344C5C" stroke-width="0.7" stroke-linecap="round" stroke-linejoin="round"/><path d="M61 44 L66 56 L57 61 L54 57 L59 53 L55 48Z" fill="#F3D5AB" stroke="#344C5C" stroke-width="0.7" stroke-linecap="round" stroke-linejoin="round"/><path d="M51 37 L54 37 M53 43 L55 43 M54 51 L56 51 M55 59 L57 59" fill="none" stroke="#344C5C" stroke-width="0.7" stroke-linecap="round" stroke-linejoin="round"/></svg>